<svg id="Layer_1" data-name="Layer 1" xmlns="http://www.w3.org/2000/svg" xmlns:xlink="http://www.w3.org/1999/xlink" viewBox="0 0 608 466.87"><defs><style>.cls-1{fill:#c1272d;}.cls-1,.cls-2,.cls-4,.cls-5{stroke:#000;stroke-miterlimit:10;}.cls-1,.cls-2{stroke-width:5px;}.cls-2{fill:#009245;}.cls-3{fill:url(#linear-gradient);}.cls-4{fill:none;stroke-width:3px;}.cls-5{fill:gray;stroke-width:4px;}</style><linearGradient id="linear-gradient" x1="106" y1="354.37" x2="106" y2="122.37" gradientUnits="userSpaceOnUse"><stop offset="0" stop-color="#b5110e"/><stop offset="0.49" stop-color="#ff0"/><stop offset="0.55" stop-color="#ddf504"/><stop offset="0.67" stop-color="#94de0e"/><stop offset="0.79" stop-color="#5bcc15"/><stop offset="0.88" stop-color="#31c01b"/><stop offset="0.96" stop-color="#17b81e"/><stop offset="1" stop-color="#0eb51f"/></linearGradient></defs><title>legend</title><path class="cls-1" d="M38.5,254.37c-19.25,0-35,15.44-35,34.3,0,25.73,35,63.7,35,63.7s35-38,35-63.7C73.5,269.81,57.75,254.37,38.5,254.37Zm0,46.55a12.25,12.25,0,1,1,0-24.5,12.25,12.25,0,1,1,0,24.5Z" transform="translate(-1)"/><path class="cls-2" d="M38.5,122.37c-19.25,0-35,15.44-35,34.3,0,25.73,35,63.7,35,63.7s35-38,35-63.7C73.5,137.81,57.75,122.37,38.5,122.37Zm0,46.55a12.25,12.25,0,1,1,0-24.5,12.25,12.25,0,1,1,0,24.5Z" transform="translate(-1)"/><path d="M190.21,150.1a27,27,0,0,1,8,1.07,15.52,15.52,0,0,1,5.67,3.05,12.19,12.19,0,0,1,3.34,4.76,16.68,16.68,0,0,1,1.11,6.22,15.89,15.89,0,0,1-1.19,6.22,13.25,13.25,0,0,1-3.49,4.86,16.14,16.14,0,0,1-5.67,3.18,24.47,24.47,0,0,1-7.81,1.14h-7.82v18.22h-6.56V150.1Zm0,25.26a15.09,15.09,0,0,0,5-.74,10.45,10.45,0,0,0,3.64-2.09,8.61,8.61,0,0,0,2.23-3.22,10.93,10.93,0,0,0,.75-4.11,9.37,9.37,0,0,0-2.87-7.28c-1.92-1.74-4.83-2.62-8.73-2.62h-7.82v20.06Z" transform="translate(-1)"/><path d="M222.72,153.57a3.83,3.83,0,0,1-.36,1.65,4.76,4.76,0,0,1-1,1.36,4.37,4.37,0,0,1-3.08,1.27,4,4,0,0,1-1.65-.34,4.14,4.14,0,0,1-1.34-.93,4.66,4.66,0,0,1-.92-1.36,4.13,4.13,0,0,1-.34-1.65,4.35,4.35,0,0,1,.34-1.68,4.6,4.6,0,0,1,.92-1.4,4.47,4.47,0,0,1,1.34-.93,4,4,0,0,1,1.65-.34,4.25,4.25,0,0,1,1.69.34,4.58,4.58,0,0,1,1.39.93,4.68,4.68,0,0,1,1,1.4A4,4,0,0,1,222.72,153.57Zm-1.29,10.81v34.44h-6.06V164.38Z" transform="translate(-1)"/><path d="M259.3,194a11.74,11.74,0,0,1-2.68,2.36,16.82,16.82,0,0,1-3.35,1.65,21.76,21.76,0,0,1-3.69,1,23.15,23.15,0,0,1-3.78.32,17.43,17.43,0,0,1-6.58-1.21,14.43,14.43,0,0,1-5.2-3.53,16.15,16.15,0,0,1-3.41-5.77,23.24,23.24,0,0,1-1.23-7.88,20,20,0,0,1,1.11-6.74,15.68,15.68,0,0,1,3.18-5.42,14.58,14.58,0,0,1,5.06-3.6,16.69,16.69,0,0,1,6.73-1.31,15.29,15.29,0,0,1,5.73,1,12.83,12.83,0,0,1,4.56,3,13.72,13.72,0,0,1,3,4.83,18.45,18.45,0,0,1,1.09,6.54,4,4,0,0,1-.31,1.91,1.29,1.29,0,0,1-1.16.47h-23a19.6,19.6,0,0,0,.9,5.68,11.41,11.41,0,0,0,2.22,4,9.12,9.12,0,0,0,3.4,2.41,11.76,11.76,0,0,0,4.42.8,12.71,12.71,0,0,0,3.93-.53,18.19,18.19,0,0,0,2.84-1.14,20.44,20.44,0,0,0,2-1.13,2.56,2.56,0,0,1,1.38-.53,1.32,1.32,0,0,1,1.15.58Zm-4.89-16.15a11.84,11.84,0,0,0-.6-3.86,8.69,8.69,0,0,0-1.73-3,7.75,7.75,0,0,0-2.77-2,9.47,9.47,0,0,0-3.71-.7,9.32,9.32,0,0,0-6.89,2.54,11.91,11.91,0,0,0-3.14,7Z" transform="translate(-1)"/><path d="M273,169.38a20.4,20.4,0,0,1,2.38-2.28,15.93,15.93,0,0,1,2.67-1.75,13.43,13.43,0,0,1,3-1.12,14.21,14.21,0,0,1,3.42-.39,12.5,12.5,0,0,1,5,.93,9.62,9.62,0,0,1,3.6,2.66,11.59,11.59,0,0,1,2.2,4.13,18.28,18.28,0,0,1,.74,5.34v21.92h-6.08V176.9a9.27,9.27,0,0,0-1.79-6.07,6.63,6.63,0,0,0-5.42-2.16,10.23,10.23,0,0,0-5,1.29,16.68,16.68,0,0,0-4.3,3.5v25.36h-6.08V164.38h3.64a1.48,1.48,0,0,1,1.59,1.26Z" transform="translate(-1)"/><path d="M312.89,153.57a3.83,3.83,0,0,1-.36,1.65,5,5,0,0,1-.95,1.36,4.29,4.29,0,0,1-1.4.93,4.17,4.17,0,0,1-1.68.34,4,4,0,0,1-1.65-.34,4,4,0,0,1-1.34-.93,4.66,4.66,0,0,1-.92-1.36,4,4,0,0,1-.34-1.65,4.17,4.17,0,0,1,.34-1.68,4.6,4.6,0,0,1,.92-1.4,4.35,4.35,0,0,1,1.34-.93,4,4,0,0,1,1.65-.34,4.17,4.17,0,0,1,1.68.34,4.63,4.63,0,0,1,1.4.93,4.88,4.88,0,0,1,.95,1.4A4,4,0,0,1,312.89,153.57Zm-1.3,10.81v34.44h-6V164.38Z" transform="translate(-1)"/><path d="M203.75,286.72a2.4,2.4,0,0,1-.66.76,1.47,1.47,0,0,1-.87.26,2.44,2.44,0,0,1-1.36-.58,21.55,21.55,0,0,0-2-1.27,15.56,15.56,0,0,0-2.82-1.28,12.29,12.29,0,0,0-4-.58,11.56,11.56,0,0,0-3.89.6,8.24,8.24,0,0,0-2.82,1.61,6.56,6.56,0,0,0-1.72,2.4,7.53,7.53,0,0,0-.58,3,5.58,5.58,0,0,0,1,3.39,8.68,8.68,0,0,0,2.66,2.29,19.52,19.52,0,0,0,3.74,1.65l4.28,1.45c1.46.5,2.89,1.06,4.28,1.68a14.75,14.75,0,0,1,3.74,2.36,10.74,10.74,0,0,1,2.66,3.51,11.75,11.75,0,0,1,1,5.09,16.36,16.36,0,0,1-1.09,6,13.62,13.62,0,0,1-3.18,4.87,14.66,14.66,0,0,1-5.13,3.27,19,19,0,0,1-6.92,1.19,21.06,21.06,0,0,1-8.64-1.72,20.27,20.27,0,0,1-6.63-4.64l1.91-3.13a2.47,2.47,0,0,1,.66-.63,1.55,1.55,0,0,1,.87-.25,1.91,1.91,0,0,1,1,.36,14.24,14.24,0,0,1,1.28.9c.47.36,1,.76,1.63,1.19a14.16,14.16,0,0,0,2.09,1.19,14.22,14.22,0,0,0,6,1.26,12.62,12.62,0,0,0,4.19-.65,8.94,8.94,0,0,0,3.11-1.82,7.81,7.81,0,0,0,1.95-2.81,9.39,9.39,0,0,0,.68-3.63,6.08,6.08,0,0,0-1-3.62,8.42,8.42,0,0,0-2.64-2.37,18.15,18.15,0,0,0-3.74-1.61L188.59,305c-1.45-.47-2.88-1-4.28-1.62a13.48,13.48,0,0,1-3.74-2.38,10.89,10.89,0,0,1-2.64-3.65,13,13,0,0,1-1-5.43,12.94,12.94,0,0,1,3.92-9.28,14.54,14.54,0,0,1,4.73-3,17.21,17.21,0,0,1,6.44-1.12,20.51,20.51,0,0,1,7.43,1.29,17.49,17.49,0,0,1,5.9,3.74Z" transform="translate(-1)"/><path d="M241.94,293.38v34.44h-3.61a1.54,1.54,0,0,1-1.63-1.25l-.48-3.71a18.76,18.76,0,0,1-5,4,13.29,13.29,0,0,1-6.39,1.51,12.32,12.32,0,0,1-5-.94,9.82,9.82,0,0,1-3.62-2.63,11.19,11.19,0,0,1-2.2-4.11,18.63,18.63,0,0,1-.73-5.34v-22h6.06v22a9.21,9.21,0,0,0,1.78,6q1.78,2.14,5.46,2.14a10.25,10.25,0,0,0,5-1.27,15.86,15.86,0,0,0,4.3-3.52V293.38Z" transform="translate(-1)"/><path d="M279.85,293.38v34.44h-3.61a1.54,1.54,0,0,1-1.63-1.25l-.48-3.71a18.76,18.76,0,0,1-5,4,13.29,13.29,0,0,1-6.39,1.51,12.32,12.32,0,0,1-5-.94,9.82,9.82,0,0,1-3.62-2.63,11.19,11.19,0,0,1-2.2-4.11,18.63,18.63,0,0,1-.73-5.34v-22h6.06v22a9.21,9.21,0,0,0,1.78,6q1.78,2.14,5.46,2.14a10.25,10.25,0,0,0,5-1.27,16,16,0,0,0,4.3-3.52V293.38Z" transform="translate(-1)"/><path d="M295.18,300.28a15.59,15.59,0,0,1,4-5.52,8.76,8.76,0,0,1,5.82-2,9,9,0,0,1,2.09.24,5.69,5.69,0,0,1,1.78.75l-.44,4.52a1,1,0,0,1-1,.85,7.34,7.34,0,0,1-1.39-.2,9.44,9.44,0,0,0-2.08-.21,8.22,8.22,0,0,0-2.91.48,6.47,6.47,0,0,0-2.27,1.41,10,10,0,0,0-1.81,2.31,20.39,20.39,0,0,0-1.44,3.14v21.76h-6.09V293.38h3.47a1.91,1.91,0,0,1,1.36.38,2.29,2.29,0,0,1,.51,1.29Z" transform="translate(-1)"/><path d="M321.87,282.57a3.83,3.83,0,0,1-.36,1.65,4.76,4.76,0,0,1-.95,1.36,4.26,4.26,0,0,1-3.08,1.27,4.12,4.12,0,0,1-1.65-.33,4.33,4.33,0,0,1-1.34-.94,4.87,4.87,0,0,1-.92-1.36,4.13,4.13,0,0,1-.34-1.65,4.35,4.35,0,0,1,.34-1.68,4.66,4.66,0,0,1,.92-1.4,4.47,4.47,0,0,1,1.34-.93,4,4,0,0,1,1.65-.34,4.25,4.25,0,0,1,1.69.34,4.4,4.4,0,0,1,2.34,2.33A4,4,0,0,1,321.87,282.57Zm-1.29,10.81v34.44h-6.06V293.38Z" transform="translate(-1)"/><path d="M530.15,462.49a3.23,3.23,0,0,1-.77,1.09A2.06,2.06,0,0,1,528,464h-4.49" transform="translate(-1)"/><rect class="cls-3" x="99.5" y="122.37" width="13" height="232" rx="6" ry="6"/><rect class="cls-4" x="99.5" y="122.37" width="13" height="232" rx="6" ry="6"/><path d="M53,1.55V62.29H41.62V35.74H13.1V62.29H1.76V1.55H13.1V27.68H41.62V1.55Z" transform="translate(-1)"/><path d="M62.75,25.2a25.54,25.54,0,0,1,17.89-6.8,17.41,17.41,0,0,1,6.76,1.24,14.16,14.16,0,0,1,5,3.44,14.74,14.74,0,0,1,3.13,5.27,20.32,20.32,0,0,1,1.07,6.72V62.29h-4.7a4.81,4.81,0,0,1-2.27-.44,3.1,3.1,0,0,1-1.26-1.79L87.48,57a38.26,38.26,0,0,1-3.19,2.59,18.36,18.36,0,0,1-3.23,1.86,17.33,17.33,0,0,1-3.59,1.16,21.15,21.15,0,0,1-4.22.4,16.54,16.54,0,0,1-5-.74,11.06,11.06,0,0,1-4-2.2,10,10,0,0,1-2.61-3.66,13,13,0,0,1-.92-5.08A10.21,10.21,0,0,1,61.23,48,9.56,9.56,0,0,1,63,44.94a14.89,14.89,0,0,1,3.21-2.77,20.86,20.86,0,0,1,4.85-2.27,41.74,41.74,0,0,1,6.7-1.57,65.53,65.53,0,0,1,8.74-.74V35.07c0-2.88-.62-5-1.85-6.4a6.74,6.74,0,0,0-5.33-2.08,12.72,12.72,0,0,0-4.18.58,17.7,17.7,0,0,0-2.92,1.33L70,29.82a4.57,4.57,0,0,1-2.29.59,3,3,0,0,1-1.85-.57,4.91,4.91,0,0,1-1.22-1.32ZM86.52,43.89a56.67,56.67,0,0,0-7.56.78A19.8,19.8,0,0,0,74,46.12a6.39,6.39,0,0,0-2.64,2.05,5.09,5.09,0,0,0,.82,6.47,6.94,6.94,0,0,0,4.22,1.18A12.28,12.28,0,0,0,82,54.66a16.53,16.53,0,0,0,4.56-3.5Z" transform="translate(-1)"/><path d="M144.23,19.19l-17.1,43.1h-9.41l-17.09-43.1h8.57a3.35,3.35,0,0,1,2,.55,2.57,2.57,0,0,1,1,1.39l8.32,23c.44,1.35.84,2.66,1.17,4s.63,2.58.88,3.86c.28-1.28.59-2.57.93-3.86s.74-2.6,1.22-4l8.48-23a2.88,2.88,0,0,1,1-1.39,3,3,0,0,1,1.81-.55Z" transform="translate(-1)"/><path d="M147.67,25.2a25.55,25.55,0,0,1,17.89-6.8,17.37,17.37,0,0,1,6.76,1.24,14.16,14.16,0,0,1,5,3.44,14.6,14.6,0,0,1,3.13,5.27,20.07,20.07,0,0,1,1.07,6.72V62.29h-4.7a4.81,4.81,0,0,1-2.27-.44,3.1,3.1,0,0,1-1.26-1.79L172.41,57a40,40,0,0,1-3.19,2.59A18.81,18.81,0,0,1,166,61.4a17.14,17.14,0,0,1-3.59,1.16,21.08,21.08,0,0,1-4.22.4,16.54,16.54,0,0,1-5-.74,11.06,11.06,0,0,1-4-2.2,9.81,9.81,0,0,1-2.6-3.66,12.86,12.86,0,0,1-.93-5.08,10,10,0,0,1,.55-3.25,9.53,9.53,0,0,1,1.78-3.09,15,15,0,0,1,3.22-2.77A20.48,20.48,0,0,1,156,39.9a41.74,41.74,0,0,1,6.7-1.57,65.37,65.37,0,0,1,8.73-.74V35.07c0-2.88-.61-5-1.85-6.4a6.74,6.74,0,0,0-5.33-2.08,12.76,12.76,0,0,0-4.18.58,18.09,18.09,0,0,0-2.92,1.33l-2.29,1.32a4.54,4.54,0,0,1-2.29.59,3,3,0,0,1-1.84-.57,4.76,4.76,0,0,1-1.22-1.32Zm23.77,18.69a57,57,0,0,0-7.56.78A19.71,19.71,0,0,0,159,46.12a6.43,6.43,0,0,0-2.65,2.05,5.09,5.09,0,0,0,.82,6.47,7,7,0,0,0,4.22,1.18,12.35,12.35,0,0,0,5.53-1.16,16.5,16.5,0,0,0,4.55-3.5Z" transform="translate(-1)"/><path d="M203.49,6.64a5.86,5.86,0,0,1-.55,2.52,6.81,6.81,0,0,1-1.45,2.05,6.89,6.89,0,0,1-2.12,1.41,6.5,6.5,0,0,1-2.6.53,6.21,6.21,0,0,1-2.54-.53,6.75,6.75,0,0,1-3.49-3.46,6.15,6.15,0,0,1-.52-2.52A6.51,6.51,0,0,1,190.74,4a6.68,6.68,0,0,1,1.41-2.1A6.89,6.89,0,0,1,194.23.52,6.37,6.37,0,0,1,196.77,0a6.67,6.67,0,0,1,2.6.52,7.08,7.08,0,0,1,2.12,1.41A6.79,6.79,0,0,1,202.94,4,6.2,6.2,0,0,1,203.49,6.64Zm-1.43,12.55v43.1H191.64V19.19Z" transform="translate(-1)"/><path d="M222.35,24.49a26.3,26.3,0,0,1,2.75-2.42,17.28,17.28,0,0,1,3.06-1.89,16.9,16.9,0,0,1,7.5-1.66,15.43,15.43,0,0,1,6.26,1.2,12.44,12.44,0,0,1,4.56,3.36,14.83,14.83,0,0,1,2.77,5.17,21.9,21.9,0,0,1,.94,6.61V62.29H239.82V34.86A9.24,9.24,0,0,0,238,28.75a6.76,6.76,0,0,0-5.5-2.16,10.83,10.83,0,0,0-5,1.21A18.23,18.23,0,0,0,223,31.12V62.29H212.64V19.19H219a2.54,2.54,0,0,1,2.64,1.89Z" transform="translate(-1)"/><path d="M269.72,24.49a28.51,28.51,0,0,1,2.75-2.42,17.73,17.73,0,0,1,3.07-1.89A17.48,17.48,0,0,1,279,19a17.68,17.68,0,0,1,4-.44,15.38,15.38,0,0,1,6.25,1.2,12.44,12.44,0,0,1,4.56,3.36,14.67,14.67,0,0,1,2.77,5.17,21.9,21.9,0,0,1,.95,6.61V62.29H287.19V34.86a9.3,9.3,0,0,0-1.8-6.11,6.77,6.77,0,0,0-5.5-2.16,10.77,10.77,0,0,0-5,1.21,18.27,18.27,0,0,0-4.46,3.32V62.29H260V19.19h6.34A2.55,2.55,0,0,1,269,21.08Z" transform="translate(-1)"/><path d="M326.46,18.52a23.46,23.46,0,0,1,8.72,1.56,18.9,18.9,0,0,1,6.72,4.41,19.32,19.32,0,0,1,4.3,7,26.46,26.46,0,0,1,1.51,9.2,26.65,26.65,0,0,1-1.51,9.24,19.84,19.84,0,0,1-4.3,7,18.72,18.72,0,0,1-6.72,4.45,25.29,25.29,0,0,1-17.49,0,18.76,18.76,0,0,1-6.75-4.45,20,20,0,0,1-4.32-7,26.41,26.41,0,0,1-1.54-9.24,26.22,26.22,0,0,1,1.54-9.2,19.5,19.5,0,0,1,4.32-7,18.93,18.93,0,0,1,6.75-4.41A23.65,23.65,0,0,1,326.46,18.52Zm0,36.42q5.39,0,8-3.62T337,40.74q0-7-2.58-10.63t-8-3.65q-5.46,0-8.08,3.68t-2.63,10.6q0,6.93,2.63,10.56T326.46,54.94Z" transform="translate(-1)"/><path d="M365.35,24.49a27.47,27.47,0,0,1,2.76-2.42A16.93,16.93,0,0,1,374.64,19a17.52,17.52,0,0,1,4-.44,15.43,15.43,0,0,1,6.26,1.2,12.32,12.32,0,0,1,4.55,3.36,14.68,14.68,0,0,1,2.78,5.17,21.9,21.9,0,0,1,.94,6.61V62.29H382.83V34.86A9.3,9.3,0,0,0,381,28.75a6.76,6.76,0,0,0-5.5-2.16,10.83,10.83,0,0,0-5,1.21A18.23,18.23,0,0,0,366,31.12V62.29H355.65V19.19H362a2.55,2.55,0,0,1,2.65,1.89Z" transform="translate(-1)"/><path d="M437.8,63q-5.62,0-8.63-3.17t-3-8.76V27h-4.41a2,2,0,0,1-1.43-.54,2.15,2.15,0,0,1-.59-1.64V20.66l6.93-1.13,2.19-11.76a2.27,2.27,0,0,1,.8-1.3A2.34,2.34,0,0,1,431.17,6h5.37V19.57h11.51V27H436.54V50.32a4.65,4.65,0,0,0,1,3.15,3.42,3.42,0,0,0,2.71,1.13,5.05,5.05,0,0,0,1.62-.23,9.6,9.6,0,0,0,1.13-.48c.32-.17.61-.33.86-.49a1.49,1.49,0,0,1,.76-.23,1.18,1.18,0,0,1,.75.23,3.44,3.44,0,0,1,.63.7l3.11,5A15.61,15.61,0,0,1,443.89,62,19.22,19.22,0,0,1,437.8,63Z" transform="translate(-1)"/><path d="M453.68,25.2a25.54,25.54,0,0,1,17.89-6.8,17.41,17.41,0,0,1,6.76,1.24,14.16,14.16,0,0,1,5,3.44,14.74,14.74,0,0,1,3.13,5.27,20.07,20.07,0,0,1,1.07,6.72V62.29h-4.7a4.81,4.81,0,0,1-2.27-.44,3.1,3.1,0,0,1-1.26-1.79L478.42,57a40,40,0,0,1-3.2,2.59A18.36,18.36,0,0,1,472,61.4a17.33,17.33,0,0,1-3.59,1.16,21.08,21.08,0,0,1-4.22.4,16.54,16.54,0,0,1-5-.74,11.06,11.06,0,0,1-4-2.2,10,10,0,0,1-2.61-3.66,13,13,0,0,1-.92-5.08,10,10,0,0,1,.55-3.25A9.53,9.53,0,0,1,454,44.94a15.13,15.13,0,0,1,3.21-2.77A20.75,20.75,0,0,1,462,39.9a41.6,41.6,0,0,1,6.69-1.57,65.53,65.53,0,0,1,8.74-.74V35.07c0-2.88-.62-5-1.85-6.4a6.74,6.74,0,0,0-5.33-2.08,12.76,12.76,0,0,0-4.18.58,17.7,17.7,0,0,0-2.92,1.33l-2.29,1.32a4.54,4.54,0,0,1-2.29.59,3,3,0,0,1-1.85-.57,4.72,4.72,0,0,1-1.21-1.32Zm23.77,18.69a56.67,56.67,0,0,0-7.56.78A19.71,19.71,0,0,0,465,46.12a6.37,6.37,0,0,0-2.65,2.05,5.09,5.09,0,0,0,.82,6.47,7,7,0,0,0,4.22,1.18,12.28,12.28,0,0,0,5.52-1.16,16.39,16.39,0,0,0,4.56-3.5Z" transform="translate(-1)"/><path d="M507.1,26.67a18.6,18.6,0,0,1,4.79-6.07,10.2,10.2,0,0,1,6.55-2.2,8,8,0,0,1,4.79,1.3l-.67,7.77a2.06,2.06,0,0,1-.61,1.07,1.68,1.68,0,0,1-1.07.31,12.17,12.17,0,0,1-1.87-.21,14.48,14.48,0,0,0-2.42-.21,8.57,8.57,0,0,0-3.06.51,7.65,7.65,0,0,0-2.42,1.45,10,10,0,0,0-1.89,2.29,22.94,22.94,0,0,0-1.53,3.06V62.29H497.32V19.19h6.09a3.33,3.33,0,0,1,2.22.57,3.35,3.35,0,0,1,.84,2Z" transform="translate(-1)"/><path d="M567.5,19.19l-17.1,43.1H541l-17.1-43.1h8.57a3.35,3.35,0,0,1,1.95.55,2.57,2.57,0,0,1,1,1.39l8.32,23c.44,1.35.84,2.66,1.17,4s.63,2.58.89,3.86c.28-1.28.58-2.57.92-3.86s.74-2.6,1.22-4l8.48-23a2.88,2.88,0,0,1,1-1.39,3.06,3.06,0,0,1,1.81-.55Z" transform="translate(-1)"/><path d="M579.63,42a20.61,20.61,0,0,0,1.18,5.73,11.71,11.71,0,0,0,2.44,4,9.58,9.58,0,0,0,3.59,2.35,13,13,0,0,0,4.6.77,14.25,14.25,0,0,0,4.34-.58A20.78,20.78,0,0,0,599,53c.91-.47,1.7-.91,2.39-1.3a4.05,4.05,0,0,1,2-.59,2.16,2.16,0,0,1,1.93,1l3,3.78a17.59,17.59,0,0,1-3.86,3.38,21.85,21.85,0,0,1-4.48,2.19,24.45,24.45,0,0,1-4.74,1.15,34.65,34.65,0,0,1-4.69.34,23.06,23.06,0,0,1-8.35-1.49A18.8,18.8,0,0,1,575.44,57a20.65,20.65,0,0,1-4.5-7.23,28,28,0,0,1-1.64-10,23.93,23.93,0,0,1,1.43-8.3,19.9,19.9,0,0,1,4.1-6.76,19.1,19.1,0,0,1,6.51-4.56,22.83,22.83,0,0,1,16.19-.38,16.4,16.4,0,0,1,5.92,3.81,17.47,17.47,0,0,1,3.88,6.13,22.76,22.76,0,0,1,1.41,8.29,6.8,6.8,0,0,1-.5,3.17,2.08,2.08,0,0,1-1.93.82Zm19.79-6.26a12.44,12.44,0,0,0-.57-3.8,9,9,0,0,0-1.7-3.13,8.06,8.06,0,0,0-2.88-2.12,10,10,0,0,0-4-.77,9.6,9.6,0,0,0-7.08,2.56,12.54,12.54,0,0,0-3.29,7.26Z" transform="translate(-1)"/><path d="M609,77.37c0,.83-2.7,1.5-6,1.5H8c-3.3,0-6-.67-6-1.5s2.7-1.5,6-1.5H603C606.3,75.87,609,76.55,609,77.37Z" transform="translate(-1)"/><path d="M208.88,451.73l0,5.37h-30V408.38h30v5.37H185.42v16.19h19v5.16h-19v16.63Z" transform="translate(-1)"/><path d="M224.18,411.85a3.83,3.83,0,0,1-.36,1.65,4.57,4.57,0,0,1-.95,1.36,4.3,4.3,0,0,1-1.39.93,4.21,4.21,0,0,1-1.68.34,4,4,0,0,1-1.65-.34,4.34,4.34,0,0,1-1.35-.93,4.63,4.63,0,0,1-.91-1.36,4,4,0,0,1-.34-1.65,4.17,4.17,0,0,1,.34-1.68,4.45,4.45,0,0,1,.91-1.4,4.34,4.34,0,0,1,1.35-.93,4,4,0,0,1,1.65-.34,4.21,4.21,0,0,1,1.68.34,4.3,4.3,0,0,1,1.39.93,4.39,4.39,0,0,1,.95,1.4A4,4,0,0,1,224.18,411.85Zm-1.29,10.81V457.1h-6V422.66Z" transform="translate(-1)"/><path d="M260.8,457.65a8.29,8.29,0,0,1-6.27-2.28q-2.21-2.28-2.2-6.56V427.73h-4.15a1.32,1.32,0,0,1-.91-.33,1.25,1.25,0,0,1-.38-1V424l5.65-.72,1.39-10.64a1.46,1.46,0,0,1,.46-.83,1.32,1.32,0,0,1,.93-.32h3.06v11.86h10v4.39h-10V448.4a4.41,4.41,0,0,0,1.06,3.23,3.69,3.69,0,0,0,2.72,1.05,4.85,4.85,0,0,0,1.65-.25,7.49,7.49,0,0,0,1.2-.56c.34-.21.63-.39.87-.56a1.16,1.16,0,0,1,.63-.26,1,1,0,0,1,.85.58l1.77,2.89a11.19,11.19,0,0,1-3.78,2.29A12.69,12.69,0,0,1,260.8,457.65Z" transform="translate(-1)"/><path d="M273.72,427.52a19.74,19.74,0,0,1,6.15-4.11,19,19,0,0,1,7.31-1.36,13.16,13.16,0,0,1,5.14.95,10.67,10.67,0,0,1,3.77,2.65,11.28,11.28,0,0,1,2.31,4.12,17.18,17.18,0,0,1,.78,5.3v22H296.5a2.57,2.57,0,0,1-1.36-.29,1.94,1.94,0,0,1-.75-1.13l-.68-3.27c-.91.84-1.79,1.58-2.65,2.23a15.43,15.43,0,0,1-2.72,1.63,15,15,0,0,1-3,1,16.44,16.44,0,0,1-3.58.36,12.57,12.57,0,0,1-3.78-.56,8.82,8.82,0,0,1-3.07-1.69,7.82,7.82,0,0,1-2.08-2.84,9.91,9.91,0,0,1-.76-4.06,7.57,7.57,0,0,1,1.12-3.93,9.84,9.84,0,0,1,3.64-3.34,23.56,23.56,0,0,1,6.56-2.4,49.56,49.56,0,0,1,9.93-1.07v-2.69c0-2.67-.58-4.7-1.74-6.07a6.24,6.24,0,0,0-5.06-2.06,10.74,10.74,0,0,0-3.76.57,14.22,14.22,0,0,0-2.62,1.25c-.73.47-1.37.89-1.9,1.26a2.7,2.7,0,0,1-1.58.56,1.73,1.73,0,0,1-1.06-.32,3,3,0,0,1-.74-.8Zm19.55,14.08a50.5,50.5,0,0,0-7.12.66,20,20,0,0,0-4.8,1.38,6.55,6.55,0,0,0-2.68,2,4.28,4.28,0,0,0-.84,2.58,5.71,5.71,0,0,0,.44,2.34,4.43,4.43,0,0,0,1.21,1.62,4.8,4.8,0,0,0,1.8.92,8.41,8.41,0,0,0,2.23.29,12,12,0,0,0,2.92-.33,10.54,10.54,0,0,0,2.5-.93,14.66,14.66,0,0,0,2.25-1.46,20.81,20.81,0,0,0,2.09-1.94Z" transform="translate(-1)"/><path d="M314.14,429.56a15.52,15.52,0,0,1,4-5.52,8.72,8.72,0,0,1,5.81-2,9,9,0,0,1,2.09.24,5.73,5.73,0,0,1,1.79.74l-.45,4.53a1,1,0,0,1-1,.85,6.85,6.85,0,0,1-1.39-.21,10,10,0,0,0-2.07-.2,8.22,8.22,0,0,0-2.91.48,6.6,6.6,0,0,0-2.28,1.41,9.74,9.74,0,0,0-1.8,2.31,20,20,0,0,0-1.45,3.14V457.1H308.4V422.66h3.47a2,2,0,0,1,1.36.37,2.48,2.48,0,0,1,.51,1.3Z" transform="translate(-1)"/><path d="M362.66,422.66l-14,34.44h-5.44l-14-34.44h4.93a2,2,0,0,1,1.22.37,1.93,1.93,0,0,1,.65.89l8.74,22.17c.27.84.51,1.65.71,2.44s.4,1.59.58,2.38c.18-.79.37-1.58.58-2.38s.45-1.6.74-2.44l8.84-22.17a2.08,2.08,0,0,1,.68-.9,1.82,1.82,0,0,1,1.13-.36Z" transform="translate(-1)"/><path d="M395.23,452.27a11.34,11.34,0,0,1-2.68,2.37,16.82,16.82,0,0,1-3.35,1.65,21.76,21.76,0,0,1-3.69,1,23.12,23.12,0,0,1-3.77.32,17.36,17.36,0,0,1-6.58-1.21,14.46,14.46,0,0,1-5.21-3.53,16.24,16.24,0,0,1-3.41-5.77,23.32,23.32,0,0,1-1.23-7.88,20,20,0,0,1,1.11-6.74A15.68,15.68,0,0,1,369.6,427a14.58,14.58,0,0,1,5.06-3.6,16.54,16.54,0,0,1,6.74-1.31,15.47,15.47,0,0,1,5.72,1,13,13,0,0,1,4.56,3,13.77,13.77,0,0,1,3,4.82,18.55,18.55,0,0,1,1.09,6.55,3.83,3.83,0,0,1-.31,1.9,1.26,1.26,0,0,1-1.15.48h-23a20.36,20.36,0,0,0,.9,5.68,11.27,11.27,0,0,0,2.23,4,9,9,0,0,0,3.4,2.41,11.68,11.68,0,0,0,4.42.8,13,13,0,0,0,3.92-.53,18.19,18.19,0,0,0,2.84-1.14,20.3,20.3,0,0,0,2-1.14,2.62,2.62,0,0,1,1.38-.52,1.32,1.32,0,0,1,1.15.57Zm-4.89-16.14a11.8,11.8,0,0,0-.6-3.86,8.54,8.54,0,0,0-1.73-3,7.66,7.66,0,0,0-2.77-2,10.47,10.47,0,0,0-10.59,1.83,11.88,11.88,0,0,0-3.15,7Z" transform="translate(-1)"/><path d="M413.53,457.65a8.3,8.3,0,0,1-6.28-2.28q-2.19-2.28-2.19-6.56V427.73h-4.15a1.35,1.35,0,0,1-.92-.33,1.24,1.24,0,0,1-.37-1V424l5.64-.72,1.4-10.64a1.4,1.4,0,0,1,.46-.83,1.3,1.3,0,0,1,.93-.32h3.06v11.86h16.22l1.39-10.71a1.46,1.46,0,0,1,.46-.83,1.33,1.33,0,0,1,.94-.32h3.06v11.86h10v4.39h-10V448.4a4.33,4.33,0,0,0,1.07,3.23,3.69,3.69,0,0,0,2.7,1.05,4.77,4.77,0,0,0,1.65-.25,7.63,7.63,0,0,0,1.21-.56c.34-.21.63-.39.86-.56a1.16,1.16,0,0,1,.63-.26,1,1,0,0,1,.85.58l1.81,2.89a11.74,11.74,0,0,1-3.81,2.29,12.74,12.74,0,0,1-4.56.84,8.33,8.33,0,0,1-6.26-2.28q-2.2-2.28-2.2-6.56V427.73h-16V448.4a4.36,4.36,0,0,0,1.06,3.23,3.66,3.66,0,0,0,2.71,1.05,4.77,4.77,0,0,0,1.65-.25,7.23,7.23,0,0,0,1.21-.56c.34-.21.63-.39.87-.56a1.16,1.16,0,0,1,.63-.26,1,1,0,0,1,.85.58l1.77,2.89a11.39,11.39,0,0,1-3.78,2.29A12.69,12.69,0,0,1,413.53,457.65Z" transform="translate(-1)"/><path d="M448.51,427.52a19.89,19.89,0,0,1,6.16-4.11,18.89,18.89,0,0,1,7.31-1.36,13.14,13.14,0,0,1,5.13.95,10.58,10.58,0,0,1,3.77,2.65,11.45,11.45,0,0,1,2.32,4.12,17.18,17.18,0,0,1,.78,5.3v22h-2.69a2.57,2.57,0,0,1-1.36-.29,1.94,1.94,0,0,1-.75-1.13l-.68-3.27a33.41,33.41,0,0,1-2.65,2.23,15.43,15.43,0,0,1-2.72,1.63,14.88,14.88,0,0,1-3,1,16.53,16.53,0,0,1-3.59.36,12.5,12.5,0,0,1-3.77-.56,8.77,8.77,0,0,1-3.08-1.69,7.91,7.91,0,0,1-2.07-2.84,9.9,9.9,0,0,1-.77-4.06,7.67,7.67,0,0,1,1.12-3.93,9.84,9.84,0,0,1,3.64-3.34,23.68,23.68,0,0,1,6.56-2.4,49.56,49.56,0,0,1,9.93-1.07v-2.69c0-2.67-.58-4.7-1.73-6.07a6.27,6.27,0,0,0-5.07-2.06,10.78,10.78,0,0,0-3.76.57,14.11,14.11,0,0,0-2.61,1.25c-.74.47-1.38.89-1.91,1.26a2.7,2.7,0,0,1-1.58.56,1.68,1.68,0,0,1-1-.32,2.86,2.86,0,0,1-.75-.8Zm19.55,14.08a50.5,50.5,0,0,0-7.12.66,20.16,20.16,0,0,0-4.8,1.38,6.55,6.55,0,0,0-2.68,2,4.27,4.27,0,0,0-.83,2.58,5.55,5.55,0,0,0,.44,2.34,4.3,4.3,0,0,0,1.2,1.62,4.77,4.77,0,0,0,1.81.92,8.33,8.33,0,0,0,2.22.29,12.16,12.16,0,0,0,2.93-.33,10.88,10.88,0,0,0,2.5-.93,14.57,14.57,0,0,0,2.24-1.46,20.81,20.81,0,0,0,2.09-1.94Z" transform="translate(-1)"/><circle class="cls-5" cx="41" cy="425.87" r="39"/></svg>